<?xml version="1.0" encoding="UTF-8" standalone="no"?>
<!-- Created with Inkscape (http://www.inkscape.org/) -->

<svg
   xmlns:dc="http://purl.org/dc/elements/1.1/"
   xmlns:cc="http://creativecommons.org/ns#"
   xmlns:rdf="http://www.w3.org/1999/02/22-rdf-syntax-ns#"
   xmlns:svg="http://www.w3.org/2000/svg"
   xmlns="http://www.w3.org/2000/svg"
   xmlns:sodipodi="http://sodipodi.sourceforge.net/DTD/sodipodi-0.dtd"
   xmlns:inkscape="http://www.inkscape.org/namespaces/inkscape"
   width="1185.0519"
   height="1073.8126"
   id="svg4039"
   version="1.1"
   inkscape:version="0.92.1 r15371"
   sodipodi:docname="logo_seris.svg">
  <defs
     id="defs4041" />
  <sodipodi:namedview
     id="base"
     pagecolor="#ffffff"
     bordercolor="#666666"
     borderopacity="1.0"
     inkscape:pageopacity="0.0"
     inkscape:pageshadow="2"
     inkscape:zoom="0.49497474"
     inkscape:cx="307.61249"
     inkscape:cy="528.76338"
     inkscape:document-units="px"
     inkscape:current-layer="layer1"
     showgrid="false"
     borderlayer="false"
     fit-margin-top="0"
     fit-margin-left="0"
     fit-margin-right="0"
     fit-margin-bottom="0"
     inkscape:window-width="1440"
     inkscape:window-height="877"
     inkscape:window-x="-8"
     inkscape:window-y="76"
     inkscape:window-maximized="1"
     showguides="true"
     inkscape:guide-bbox="true" />
  <metadata
     id="metadata4044">
    <rdf:RDF>
      <cc:Work
         rdf:about="">
        <dc:format>image/svg+xml</dc:format>
        <dc:type
           rdf:resource="http://purl.org/dc/dcmitype/StillImage" />
        <dc:title />
      </cc:Work>
    </rdf:RDF>
  </metadata>
  <g
     inkscape:label="Layer 1"
     inkscape:groupmode="layer"
     id="layer1"
     transform="translate(-177.68632,-300.67852)">
    <path
       inkscape:connector-curvature="0"
       id="path34"
       d="m 1031.8206,706.27135 c -0.6895,-1.30699 -2.0001,-6.04274 -2.9123,-10.5239 -2.4281,-11.9289 -7.7767,-28.56223 -12.5924,-39.16073 -2.9302,-6.4497 -3.8298,-9.8852 -2.9443,-11.2466 0.7013,-1.07808 30.3007,-16.21703 65.7763,-33.64214 35.4759,-17.42508 104.3797,-51.29792 153.1199,-75.27296 48.7401,-23.97504 89.4485,-43.27241 90.4633,-42.88304 1.0146,0.38935 4.0207,5.40906 6.6803,11.15486 14.7878,31.95029 24.4678,64.01453 30.2873,100.32476 2.4739,15.43728 3.9842,55.93997 2.1834,58.55485 -0.8171,1.18623 -18.3366,4.01632 -52.6956,8.51246 -28.3094,3.70447 -101.41,13.44566 -162.4458,21.6471 -61.0361,8.20144 -111.5801,14.91171 -112.3204,14.91171 -0.7403,0 -1.9102,-1.06936 -2.5997,-2.37637 z M 991.13263,614.6116 c -6.94595,-8.70277 -23.9275,-25.60644 -33.41419,-33.26115 -4.43456,-3.57823 -5.11712,-4.76225 -4.07382,-7.06691 0.68948,-1.52269 42.19482,-57.4382 92.23428,-124.25668 60.3791,-80.62531 92.0137,-121.78572 94.0515,-122.37281 2.2269,-0.64157 8.4347,1.72873 22.5921,8.62629 30.6855,14.95018 56.0228,31.88672 82.5625,55.1886 14.5625,12.78574 37.7515,38.22278 37.7515,41.41132 0,1.615 -44.2407,31.84751 -140.9003,96.28627 -77.4951,51.66266 -141.6043,93.93207 -142.4648,93.93207 -0.8607,0 -4.61324,-3.81915 -8.33877,-8.487 z m -75.61437,-57.56355 c -12.83795,-5.61965 -30.09178,-10.80058 -43.15154,-12.95734 -5.38254,-0.88892 -9.68096,-2.32748 -10.08275,-3.37439 -0.38517,-1.00368 1.5015,-18.47281 4.19242,-38.82029 2.69103,-20.34745 5.4984,-41.57837 6.23869,-47.17981 0.74027,-5.60142 2.28357,-16.90613 3.42961,-25.12156 1.14605,-8.21543 4.8377,-35.95073 8.20391,-61.63404 3.3662,-25.68329 6.43405,-47.20443 6.81747,-47.82479 2.07951,-3.36466 42.76925,-13.29645 69.84264,-17.04759 23.04323,-3.19276 69.16029,-3.21691 91.88699,-0.0481 18.8695,2.63097 20.8205,3.18941 20.8205,5.95895 0,1.10318 -5.1055,10.9676 -11.3459,21.92095 -22.5635,39.605 -40.6169,71.57117 -85.06216,150.61521 -37.74565,67.12896 -45.71086,80.4413 -48.08312,80.36255 -1.56383,-0.0517 -7.73181,-2.23426 -13.70676,-4.8497 z"
       style="fill:#e4ba09;stroke-width:1.35792243"
       sodipodi:nodetypes="cccccscccccssccccssccssscccccccscscscsccc" />
    <path
       inkscape:connector-curvature="0"
       id="path32"
       d="m 650.477,664.36259 c -0.46218,-1.20424 -0.45933,-11.74513 0.009,-23.42418 4.22631,-106.01582 55.41749,-203.30772 141.44028,-268.81565 15.07854,-11.48294 40.33549,-27.39824 43.47942,-27.39824 1.78829,0 2.03424,11.82159 2.03424,97.74454 v 97.74454 l -3.05531,0.62019 c -1.68044,0.34109 -7.94387,0.97016 -13.91866,1.39791 -5.97488,0.42775 -17.28815,2.23443 -25.14065,4.01489 -58.92948,13.36149 -108.56498,54.19956 -133.01827,109.44214 -1.81831,4.10773 -3.86794,8.23243 -4.55467,9.166 -1.77208,2.40895 -6.27696,2.10412 -7.27319,-0.49214 z"
       style="fill:#c72023;stroke-width:1.35792243"
       sodipodi:nodetypes="cccsscccscccc" />
    <path
       inkscape:connector-curvature="0"
       id="path30"
       d="m 1003.5474,1373.8805 c -8.09547,-1.4734 -13.74018,-4.7543 -16.7931,-9.7614 -3.81696,-6.2599 -3.48146,-9.1019 1.07345,-9.0914 2.73344,0.014 4.36293,1.1133 6.07983,4.1302 4.18902,7.3607 16.97262,10.3196 26.02522,6.0236 5.7135,-2.7112 9.0028,-8.5577 9.9435,-17.6747 0.797,-7.7227 -0.4088,-9.3399 -3.8605,-5.1776 -8.0227,9.6738 -31.11968,6.8175 -38.84187,-4.8033 -8.58583,-12.9204 -7.57465,-35.1868 2.06443,-45.4627 10.04984,-10.7138 26.67454,-11.8375 37.29844,-2.5216 1.3116,1.1501 2.5336,1.8404 2.7158,1.5337 0.1823,-0.3066 1.0089,-1.7797 1.8371,-3.2733 0.8283,-1.4937 2.6616,-2.7158 4.0738,-2.7158 2.4551,0 2.568,1.6096 2.568,36.6639 0,35.8396 -0.071,36.7762 -3.1067,41.6597 -5.1926,8.3507 -18.3561,12.7859 -31.0774,10.4707 z m 16.6474,-35.7869 c 15.9938,-10.4794 11.3332,-44.1306 -6.5698,-47.4378 -7.778,-1.4367 -16.36105,2.8623 -20.01515,10.0249 -7.40784,14.5207 -3.47519,32.5099 8.43295,38.5736 5.2134,2.6548 13.0986,2.1507 18.152,-1.1607 z m 104.7271,33.7306 c -0.5293,-0.5296 -0.9624,-20.1285 -0.9624,-43.5536 0,-38.2703 0.2265,-42.6776 2.2333,-43.4478 2.0578,-0.7896 5.0644,1.7876 6.2562,5.3631 0.242,0.7259 2.7698,-0.2612 5.6172,-2.1936 9.4119,-6.387 22.6765,-6.5628 31.9537,-0.4236 17.3442,11.4779 17.1825,47.4864 -0.2652,59.0326 -4.719,3.1229 -6.9737,3.6652 -15.2419,3.6652 -8.3127,0 -10.5128,-0.5354 -15.3467,-3.7344 -3.1037,-2.0538 -5.9408,-3.7342 -6.3051,-3.7342 -0.3642,0 -0.8356,6.5689 -1.0477,14.5976 -0.3567,13.5125 -0.5913,14.6272 -3.1569,14.9944 -1.5246,0.2183 -3.205,-0.035 -3.7345,-0.5657 z m 39.6821,-31.5502 c 5.9699,-4.3088 8.9195,-12.0059 8.9195,-23.2768 0,-13.4227 -3.1289,-19.8204 -11.8295,-24.1877 -7.0237,-3.5254 -12.6906,-3.1932 -19.8555,1.1642 -6.6641,4.0527 -9.0146,9.8789 -9.0146,22.3447 0,11.5086 1.8769,16.9402 7.7421,22.4045 6.0938,5.6772 17.3172,6.4014 24.038,1.5511 z m -872.21002,9.3474 c -7.41618,-2.3734 -14.42022,-11.2612 -14.42022,-18.2984 0,-5.1049 6.23479,-4.9038 8.43573,0.272 2.54114,5.9759 6.62467,9.7735 12.09208,11.2456 11.19705,3.0152 24.21755,-4.0706 22.26365,-12.1157 -1.2534,-5.1609 -5.58636,-7.9162 -16.31197,-10.3731 -5.22798,-1.1974 -12.05906,-3.305 -15.18017,-4.6836 -13.64754,-6.0282 -12.89482,-23.5133 1.28953,-29.9522 7.33462,-3.3296 19.08723,-3.4629 25.40595,-0.2883 5.44052,2.7335 10.89041,10.138 10.89041,14.7964 0,2.6436 -0.70202,3.1939 -4.07376,3.1939 -2.53696,0 -4.07379,-0.6992 -4.07379,-1.8537 0,-3.5555 -5.61538,-8.9545 -10.75228,-10.3375 -9.97453,-2.686 -19.12197,1.8251 -19.12197,9.4298 0,5.6465 5.01817,8.9408 17.83934,11.7107 16.51861,3.5691 22.83989,8.9768 22.87317,19.5671 0.0194,6.1558 -4.11817,12.841 -9.75971,15.7692 -5.13713,2.6662 -21.4821,3.8106 -27.39599,1.9178 z m 167.63787,-1.0544 c -9.59708,-4.8938 -10.22852,-7.0072 -10.72838,-35.9028 -0.2714,-15.6922 0.0755,-26.3913 0.88178,-27.1976 0.73102,-0.7312 2.61281,-0.9217 4.18172,-0.4239 2.73796,0.8689 2.85285,1.7612 2.86008,22.2012 0,11.7126 0.64559,23.5929 1.42532,26.4008 1.75365,6.3143 6.42096,9.5358 14.0607,9.7039 7.37312,0.1624 12.30523,-2.4721 16.12459,-8.6132 2.68165,-4.3118 3.08272,-7.1849 3.68788,-26.4213 0.59527,-18.9238 0.98155,-21.7686 3.13487,-23.0847 1.96386,-1.2007 2.84797,-0.9733 4.4132,1.1347 2.76609,3.7249 2.86865,57.3842 0.11674,61.1474 -2.26655,3.0999 -6.30712,1.8984 -6.30712,-1.8751 0,-3.9815 -2.02424,-4.5013 -4.91072,-1.2611 -5.86786,6.5867 -20.1788,8.6596 -28.94076,4.1917 z m 114.2988,1.2246 c -1.68584,-0.4857 -5.20088,-2.5908 -7.81134,-4.6779 -17.44377,-13.9468 -14.24313,-50.6004 5.18895,-59.4228 17.96695,-8.157 36.37834,2.2741 40.25392,22.8063 2.16806,11.4861 2.95002,11.1026 -23.49687,11.5238 l -23.29095,0.3712 0.16569,5.2145 c 0.31256,9.8328 8.99864,17.7135 19.52413,17.7135 8.05507,0 12.80621,-2.9902 16.71276,-10.5181 2.16804,-4.1776 3.27885,-5.0147 6.20383,-4.6756 2.91141,0.3377 3.49284,1.0339 3.17936,3.8079 -0.6411,5.6731 -6.53798,13.0722 -12.85578,16.1307 -5.95697,2.8836 -16.97915,3.684 -23.7737,1.7265 z m 28.82864,-39.5241 c 1.10684,-1.7911 -2.86682,-10.9044 -6.38961,-14.6542 -4.21706,-4.4888 -11.77839,-6.1996 -18.07766,-4.0899 -5.97152,1.9998 -12.39962,9.3599 -13.65455,15.6345 l -0.88155,4.4078 h 19.10045 c 10.68265,0 19.45419,-0.5723 19.90292,-1.2982 z m 74.71094,38.2183 c -7.42097,-3.4708 -13.71077,-11.028 -16.2251,-19.4945 -7.3621,-24.7909 8.02442,-47.6094 30.79931,-45.6761 9.63661,0.818 16.85634,4.5096 21.58425,11.0363 5.28296,7.2929 7.04945,14.6352 6.3125,26.2366 -0.75029,11.8105 -5.2688,20.4749 -13.52837,25.9407 -7.33553,4.8545 -20.80076,5.765 -28.94259,1.957 z m 22.70167,-7.2429 c 4.19477,-2.1639 9.12106,-10.0257 10.77665,-17.1978 4.46588,-19.3473 -9.53577,-37.2811 -25.707,-32.9267 -10.35765,2.7891 -16.37949,12.3035 -16.37949,25.8788 0,9.1828 2.03016,15.0589 7.03448,20.3612 5.9092,6.2605 16.41158,7.9412 24.27536,3.8845 z m 125.99369,8.4338 c -10.11414,-3.0767 -17.4949,-9.7398 -20.34083,-18.3632 -2.48093,-7.5173 -1.44619,-10.9213 3.31992,-10.9213 3.37114,0 4.15453,0.656 4.86509,4.0737 2.44386,11.755 9.51022,17.094 23.9121,18.067 15.03669,1.0157 26.27437,-5.7559 26.27437,-15.8325 0,-10.0541 -4.1477,-12.9108 -27.6622,-19.0531 -18.42584,-4.8133 -24.10416,-7.7998 -27.18913,-14.3008 -4.48665,-9.4551 -1.98536,-20.1905 6.42495,-27.5748 6.29641,-5.5285 14.16214,-7.634 25.51542,-6.8306 15.41789,1.0913 27.99013,10.7875 28.68991,22.1269 0.31511,5.1075 0.13422,5.376 -3.62087,5.376 -3.15788,0 -4.25005,-0.819 -5.43176,-4.0737 -2.76263,-7.609 -5.08294,-10.4108 -10.75452,-12.9859 -18.5603,-8.4271 -39.07262,4.0203 -32.04457,19.4453 2.10155,4.6124 4.86804,5.9383 20.51691,9.8339 17.23398,4.2903 20.96187,5.6641 26.57573,9.7943 5.88353,4.3289 8.48665,9.7428 8.4805,17.6379 -0.0139,11.0562 -6.52284,19.1999 -18.23381,22.7941 -6.96878,2.1389 -23.40113,2.5803 -29.29721,0.7868 z m 236.38391,-1.0356 c -6.7796,-3.5649 -9.8284,-8.4267 -9.8284,-15.6727 0,-13.2408 5.5619,-17.6845 26.0268,-20.7958 6.3484,-0.9649 12.5886,-2.164 13.8671,-2.664 5.296,-2.0723 4.4592,-12.8447 -1.2905,-16.612 -4.6779,-3.0652 -16.4629,-3.0245 -21.1902,0.073 -1.9763,1.295 -4.4819,4.4812 -5.5681,7.0806 -1.523,3.6451 -2.7671,4.726 -5.4388,4.726 -2.836,0 -3.4642,-0.648 -3.4642,-3.574 0,-4.8819 4.3516,-11.5164 9.5675,-14.5874 6.3619,-3.745 20.1443,-4.515 27.8873,-1.5579 10.2721,3.923 11.4195,7.1043 11.4254,31.6777 l 0.013,20.785 4.2989,3.9262 c 3.6346,3.3198 4.0285,4.2522 2.5495,6.0342 -2.7581,3.3232 -8.1284,2.5341 -12.0758,-1.7741 l -3.5568,-3.8819 -5.204,4.182 c -4.4367,3.5654 -6.5427,4.2487 -14.2795,4.633 -6.7864,0.3369 -10.2493,-0.1667 -13.7313,-1.9977 z m 18.2354,-5.9811 c 9.647,-2.6295 15.6161,-10.4037 15.6161,-20.3386 v -5.6738 l -7.1292,0.8898 c -13.3728,1.6695 -21.4758,3.9834 -24.8279,7.0899 -5.8191,5.393 -3.8743,14.1728 3.887,17.5489 5.2952,2.3034 5.7184,2.3199 12.454,0.4838 z m 129.8741,5.3538 c -11.1684,-5.5282 -17.2656,-18.337 -16.2582,-34.1548 1.1218,-17.6178 11.0559,-29.009 26.5212,-30.4111 20.1985,-1.8316 33.743,11.681 33.6284,33.5493 -0.057,10.8367 -2.3207,17.7486 -7.8916,24.0933 -8.6027,9.798 -24.1511,12.7881 -35.9998,6.9233 z m 18.9903,-5.241 c 9.7229,-2.7008 16.129,-12.608 16.1156,-24.9228 -0.014,-10.5083 -2.1624,-16.3387 -7.9607,-21.577 -7.1854,-6.4912 -13.5432,-7.5067 -21.6898,-3.4636 -15.2821,7.5845 -18.3198,31.885 -5.5785,44.6263 4.4957,4.4956 6.9904,5.7648 12.8309,6.5275 0.7468,0.098 3.5739,-0.4381 6.2825,-1.1904 z m 92.7896,5.6201 c -22.6318,-10.2801 -22.399,-52.8346 0.3437,-62.895 8.6698,-3.8349 19.8273,-2.9678 27.5475,2.1414 7.449,4.9293 12.5579,15.5625 11.9607,24.8943 l -0.416,6.5005 -23.0847,0.679 -23.0846,0.6791 0.1657,5.2145 c 0.309,9.7234 9.0067,17.7135 19.2818,17.7135 7.9664,0 14.5717,-4.1677 17.4238,-10.9935 1.6188,-3.8749 2.5413,-4.5664 5.6175,-4.2115 3.0339,0.3499 3.6131,1.0206 3.2968,3.8192 -0.6504,5.7567 -6.859,13.6084 -12.9458,16.3718 -7.3236,3.3252 -18.8926,3.3635 -26.1064,0.086 z m 30.8904,-41.5802 c -1.2462,-12.7567 -18.4433,-20.8023 -28.5098,-13.3382 -4.1438,3.0727 -9.7368,12.0892 -9.7706,15.7522 -0.021,2.2183 1.542,2.383 19.3279,2.0367 l 19.3505,-0.3768 z m -1169.90478,41.8694 c -0.49793,-0.4978 -0.90531,-20.3766 -0.90531,-44.175 0,-38.8073 0.22906,-43.3577 2.22144,-44.1224 1.22182,-0.4688 3.20778,-0.2305 4.41321,0.5296 1.92649,1.2146 2.23528,6.4397 2.55121,43.1671 0.25542,29.6991 -0.0876,42.3233 -1.18476,43.6455 -1.62544,1.9585 -5.56254,2.4885 -7.09579,0.9552 z m 28.57361,0.057 c -0.52939,-0.5294 -0.96255,-14.8499 -0.96255,-31.8232 0,-26.179 0.309,-30.9791 2.03691,-31.6422 3.0267,-1.1615 5.74583,0.3075 6.59745,3.564 0.69459,2.6559 0.94797,2.7153 3.18916,0.7488 10.13818,-8.896 26.92159,-8.6647 35.34848,0.4872 4.23376,4.598 5.78699,14.5626 5.78699,37.1268 0,15.9877 -0.37265,19.6474 -2.15076,21.1231 -1.55799,1.2931 -2.77422,1.3929 -4.4132,0.3618 -1.92495,-1.2109 -2.36391,-4.9572 -2.94157,-25.1088 -0.77431,-27.0156 -1.72686,-29.92 -10.59515,-32.3079 -8.92042,-2.4022 -18.66866,2.2888 -22.42507,10.7911 -0.82494,1.8671 -1.82942,13.1719 -2.23223,25.1215 -0.69304,20.558 -0.88155,21.7482 -3.50416,22.1235 -1.52449,0.2183 -3.20492,-0.035 -3.7343,-0.5657 z m 139.14013,-2.2948 c -2.79391,-2.9742 -2.95258,-4.3913 -2.95258,-26.3684 0,-12.7742 -0.3709,-24.1923 -0.82421,-25.3736 -0.4692,-1.223 -2.39914,-2.1479 -4.48115,-2.1479 -4.88852,0 -7.18969,-2.3828 -5.44662,-5.6398 0.83868,-1.5671 2.84247,-2.5079 5.34222,-2.5079 4.42229,0 5.09905,-1.4432 5.73068,-12.2213 0.32337,-5.5172 0.68775,-6.1106 3.75286,-6.1106 3.24333,0 3.4127,0.4057 3.7946,9.0909 l 0.39985,9.0908 5.71082,0.4147 c 5.07569,0.3684 5.71091,0.792 5.71091,3.8094 0,2.9421 -0.72422,3.4852 -5.43176,4.0738 l -5.43167,0.6788 -0.37173,22.616 c -0.41135,25.0286 0.15399,26.9483 7.93734,26.9483 3.33661,0 3.9767,0.5465 3.9767,3.3947 0,3.1964 -0.42315,3.3948 -7.23185,3.3948 -5.80357,0 -7.81492,-0.6206 -10.18441,-3.1427 z m 33.31598,2.2948 c -0.52938,-0.5294 -0.96253,-14.8499 -0.96253,-31.8232 0,-26.179 0.309,-30.9791 2.03688,-31.6422 1.1203,-0.4299 2.96459,-0.4256 4.09842,0.014 1.77606,0.6815 2.0111,5.1417 1.69744,32.2081 -0.353,30.4553 -0.44903,31.429 -3.13591,31.8137 -1.52439,0.2183 -3.20482,-0.035 -3.7343,-0.5658 z m 32.87439,-1.6819 c -3.2137,-2.5993 -3.29813,-3.2008 -3.96265,-28.24 l -0.67891,-25.584 -4.75277,-0.6788 c -3.6125,-0.5163 -4.85531,-1.4005 -5.18039,-3.6863 -0.33366,-2.3466 0.41236,-3.1921 3.39487,-3.8478 2.10238,-0.4622 4.55631,-1.0642 5.45323,-1.3379 0.98383,-0.2999 1.79196,-3.8916 2.0369,-9.0523 0.38497,-8.1122 0.58194,-8.5553 3.80082,-8.5553 3.06521,0 3.4296,0.5934 3.75296,6.1106 0.64345,10.9804 1.26257,12.2192 6.11788,12.2422 5.62445,0.027 8.17565,1.6775 7.56417,4.8946 -0.36409,1.9157 -2.00806,2.7228 -6.58372,3.2322 l -6.09851,0.6788 -0.3749,21.5718 c -0.42612,24.5192 0.43477,27.5003 8.15659,28.2439 3.39183,0.3267 4.43961,1.0684 4.43961,3.1433 0,4.0255 -12.40157,4.6533 -17.08518,0.865 z m 108.98162,-0.6129 c -2.79389,-2.9742 -2.95256,-4.3913 -2.95256,-26.3684 0,-12.7742 -0.37093,-24.1923 -0.82424,-25.3736 -0.47712,-1.2436 -2.40851,-2.1479 -4.58645,-2.1479 -2.06916,0 -4.52289,-0.9168 -5.45262,-2.037 -2.39262,-2.883 0.55066,-6.1107 5.57209,-6.1107 4.28927,0 4.98467,-1.5142 5.61212,-12.2213 0.32336,-5.5172 0.68776,-6.1106 3.75287,-6.1106 3.24332,0 3.41269,0.4057 3.79461,9.0909 l 0.39982,9.0908 5.71083,0.4147 c 5.07571,0.3684 5.7109,0.792 5.7109,3.8094 0,2.9421 -0.72421,3.4852 -5.43176,4.0738 l -5.43164,0.6788 -0.37174,22.616 c -0.41002,24.9476 0.16844,26.9483 7.792,26.9483 3.85897,0 5.58207,1.9551 4.48786,5.0922 -0.37214,1.0668 -3.23692,1.6973 -7.71082,1.6973 -5.68535,0 -7.71317,-0.6329 -10.07127,-3.1427 z m 213.6028,1.4454 c -0.34485,-0.9336 -0.784,-13.6132 -0.97588,-28.1769 l -0.34871,-26.4796 -4.31219,-0.418 c -8.93917,-0.8665 -8.93917,-7.8028 0,-8.6694 4.1587,-0.403 4.34029,-0.6838 5.10271,-7.8866 0.43486,-4.1077 1.24595,-8.4908 1.80243,-9.74 1.4638,-3.2861 9.6756,-6.79 14.7612,-6.2986 3.64612,0.3522 4.37257,0.9865 4.37257,3.8172 0,2.8135 -0.73113,3.4659 -4.27105,3.8098 -6.00818,0.5838 -8.90463,4.2666 -8.37961,10.6548 0.40969,4.9859 0.67827,5.2565 5.86101,5.9043 4.70755,0.5884 5.43176,1.1317 5.43176,4.0739 0,2.9421 -0.72421,3.4852 -5.43176,4.0738 l -5.43166,0.6788 -0.36908,27.0967 c -0.37184,27.2943 -0.723,29.1798 -5.44469,29.2363 -0.95703,0.014 -2.02221,-0.743 -2.36705,-1.6765 z m 149.68826,0.8494 c -0.52937,-0.5294 -0.9625,-14.8499 -0.9625,-31.8232 0,-26.179 0.3091,-30.9791 2.03689,-31.6422 1.12035,-0.4299 2.96464,-0.4256 4.0984,0.014 1.77612,0.6815 2.01119,5.1417 1.69748,32.2081 -0.35295,30.4553 -0.44906,31.429 -3.13587,31.8137 -1.52444,0.2183 -3.20488,-0.035 -3.7344,-0.5658 z m 25.80064,0 c -0.5295,-0.5294 -0.96265,-14.8499 -0.96265,-31.8232 0,-26.179 0.30897,-30.9791 2.03691,-31.6422 3.02665,-1.1615 5.74601,0.3075 6.59762,3.564 0.69448,2.6559 0.94784,2.7153 3.1891,0.7488 7.93684,-6.9644 19.95797,-8.486 29.71701,-3.7618 9.28114,4.493 10.52896,8.5888 11.1676,36.6564 0.48051,21.1229 0.28197,24.0316 -1.75453,25.7218 -1.67878,1.3934 -2.90428,1.5231 -4.55865,0.4825 -1.92478,-1.2109 -2.36381,-4.9572 -2.94155,-25.1088 -0.77431,-27.0156 -1.72683,-29.92 -10.59501,-32.3079 -8.92059,-2.4022 -18.66875,2.2888 -22.42508,10.7911 -0.82507,1.8671 -1.82948,13.1719 -2.23245,25.1215 -0.69293,20.558 -0.88134,21.7482 -3.50406,22.1235 -1.52444,0.2183 -3.20489,-0.035 -3.73426,-0.5657 z m 355.08455,-0.7817 c -1.1671,-1.1672 -1.6294,-9.9815 -1.6294,-31.0659 0,-24.509 0.3409,-29.7193 2.0369,-31.1268 2.7287,-2.2646 6.1106,0.4579 6.1106,4.9191 0,4.1584 0.7216,4.0685 6.2418,-0.7784 7.3994,-6.4967 18.8826,-7.3459 17.9566,-1.328 -0.3188,2.0719 -2.4205,3.4948 -7.883,5.3373 -4.4776,1.5101 -8.6636,4.0363 -10.4952,6.3334 -4.3663,5.4759 -6.2833,16.6374 -5.4563,31.7696 0.3904,7.141 0.1328,14.0154 -0.5736,15.2764 -1.5048,2.6892 -4.0181,2.9537 -6.3084,0.6633 z m -886.41755,-76.2262 c -0.42276,-1.1017 -0.57277,-4.0471 -0.33343,-6.5454 0.36634,-3.8241 0.97211,-4.5427 3.82996,-4.5427 3.11816,0 3.39478,0.4982 3.39478,6.1107 0,5.3066 -0.40271,6.168 -3.06135,6.5455 -1.76802,0.251 -3.38612,-0.4115 -3.82996,-1.5681 z m 505.14713,0 c -0.42279,-1.1017 -0.57282,-4.0471 -0.33341,-6.5454 0.36639,-3.8241 0.97215,-4.5427 3.82993,-4.5427 3.11814,0 3.39485,0.4982 3.39485,6.1107 0,5.3066 -0.4027,6.168 -3.06143,6.5455 -1.76803,0.251 -3.38604,-0.4115 -3.82994,-1.5681 z m -157.72351,-53.9884 c -5.69491,-2.8192 -11.23606,-9.6998 -11.23606,-13.9525 0,-3.8382 7.89485,-2.8986 9.74383,1.1594 3.42452,7.5162 14.8777,10.7021 24.82146,6.9046 4.76755,-1.8208 6.58637,-3.4885 8.80627,-8.0741 2.52432,-5.2146 3.93557,-17.1433 2.02823,-17.1433 -0.42327,0 -2.87149,1.6031 -5.44042,3.5626 -13.63052,10.3966 -35.52711,2.3618 -40.65916,-14.9195 -5.41749,-18.2428 1.45241,-38.0834 15.17133,-43.8157 9.05374,-3.7828 22.66277,-1.7273 27.54967,4.1611 2.3639,2.8481 3.68697,2.6784 4.5398,-0.5826 0.92678,-3.5442 4.52035,-4.8444 7.21271,-2.6101 1.86314,1.5463 2.07914,6.0685 1.68012,35.1586 -0.4472,32.5945 -0.53915,33.5417 -3.88617,40.0417 -4.75765,9.2395 -11.91393,12.9523 -24.96232,12.9509 -7.0362,-7e-4 -11.17748,-0.7664 -15.36929,-2.8411 z m 25.42784,-33.6996 c 5.39438,-3.6833 9.50542,-13.1328 9.50542,-21.8487 0,-25.5702 -26.20593,-35.2662 -36.895,-13.6511 -3.57899,7.2375 -3.95154,20.467 -0.74966,26.6239 5.99343,11.5252 18.48777,15.4661 28.13924,8.8759 z m 31.72324,33.1469 c -1.3751,-3.5833 0.61045,-6.1107 4.80103,-6.1107 2.21064,0 5.06451,-1.0451 6.34183,-2.3224 2.74552,-2.7454 6.01912,-10.1533 6.01912,-13.6207 0,-1.3484 -5.22819,-15.5039 -11.6182,-31.4567 -6.39001,-15.9532 -11.29776,-29.8406 -10.90608,-30.8615 0.88329,-2.3018 5.68228,-2.4377 7.16749,-0.2031 0.60423,0.909 5.14079,12.0335 10.08133,24.7209 4.94059,12.6876 9.59568,23.2727 10.34464,23.5224 0.74897,0.2495 4.8874,-9.5001 9.19643,-21.6658 4.30902,-12.1658 8.68119,-23.4946 9.71603,-25.175 1.88116,-3.055 6.4284,-4.1263 7.83742,-1.8465 0.41094,0.6649 -5.93955,18.8441 -14.11204,40.3981 -16.59317,43.7626 -18.37015,46.658 -28.63451,46.658 -3.59427,0 -5.71926,-0.6942 -6.23449,-2.037 z m -590.07306,-21.4965 c -12.41126,-3.5128 -20.08205,-12.1278 -20.55827,-23.0892 -0.23466,-5.4002 -0.0539,-5.6762 3.9823,-6.069 4.00513,-0.39 4.27603,-0.1122 5.13712,5.2728 1.84907,11.5633 13.93992,18.5585 29.64085,17.1485 14.46664,-1.2992 23.40307,-10.5327 20.04404,-20.7109 -2.06386,-6.2534 -7.52618,-9.261 -24.42315,-13.4483 -17.57679,-4.3556 -23.70761,-6.9537 -27.75315,-11.7616 -8.96351,-10.6524 -3.42532,-28.8952 10.72298,-35.322 11.37751,-5.168 31.95431,-2.4646 40.57441,5.3304 3.57544,3.2333 7.68801,11.7223 7.68801,15.8694 0,7.025 -7.58026,5.9239 -9.93694,-1.4434 -2.97691,-9.3058 -11.12546,-14.1612 -23.76676,-14.1612 -9.13308,0 -15.95582,3.5864 -19.04526,10.0111 -2.27939,4.7403 -1.08851,11.8577 2.53225,15.1344 1.47898,1.3384 10.44362,4.496 19.92121,7.0165 9.47774,2.5207 19.68192,5.9397 22.67593,7.598 6.96725,3.8581 10.62347,10.1342 10.74893,18.4505 0.23181,15.3663 -10.83876,24.5273 -30.76283,25.4561 -6.67295,0.3113 -13.59041,-0.1979 -17.42167,-1.2821 z m 72.22015,-1.8186 c -10.50351,-5.4098 -15.12326,-13.1845 -16.00584,-26.9372 -0.79275,-12.3526 1.22367,-20.3264 6.87326,-27.1803 5.51527,-6.6909 13.26215,-10.0861 23.09876,-10.1235 21.52244,-0.081 35.01119,20.5548 28.79257,44.0497 -3.91611,14.7958 -12.59037,22.3461 -26.89459,23.4098 -7.27494,0.5409 -9.40327,0.1086 -15.86416,-3.2185 z m 24.57469,-7.5885 c 11.82196,-7.8562 14.33416,-28.6647 5.06818,-41.9788 -3.43296,-4.9327 -13.11356,-8.5161 -19.67886,-7.2845 -6.86428,1.2879 -14.65833,9.2176 -16.77079,17.063 -3.31664,12.3169 0.80754,26.3071 9.49546,32.2114 6.10322,4.1475 15.63553,4.1427 21.88601,-0.014 z m 58.6815,8.575 c -6.82224,-3.0976 -10.39199,-9.1621 -10.26682,-17.4418 0.0488,-3.2035 1.11103,-7.3857 2.36136,-9.294 2.95196,-4.5053 11.51939,-8.1837 21.73417,-9.3318 14.13943,-1.5891 18.20149,-3.0755 19.19233,-7.0233 2.20788,-8.7971 -5.93823,-16.0434 -16.79645,-14.9409 -7.43045,0.7545 -12.07688,3.878 -14.5408,9.7752 -1.55872,3.7305 -2.74195,4.7261 -5.61652,4.7261 -3.42399,0 -3.59428,-0.2927 -2.84715,-4.8963 1.16368,-7.1715 4.43878,-11.3066 11.38985,-14.3814 8.30264,-3.6728 24.20765,-3.0917 29.85817,1.0907 6.75482,4.9998 7.75695,8.8764 8.32302,32.1941 0.51432,21.19 0.56451,21.492 3.77188,22.7117 6.48077,2.4639 2.32042,8.9989 -4.74145,7.4477 -2.21631,-0.4867 -5.04301,-2.4318 -6.28175,-4.3221 l -2.25207,-3.4372 -2.95848,2.7793 c -7.46904,7.017 -20.37158,8.8648 -30.32929,4.344 z m 22.38311,-7.4166 c 6.40364,-3.3319 10.04508,-8.3697 10.78327,-14.9186 1.15603,-10.2564 1.05163,-10.3136 -13.73065,-7.5147 -14.25441,2.6988 -17.75876,4.1101 -19.83415,7.988 -2.35758,4.4052 -1.55729,8.2464 2.58032,12.3839 3.24324,3.2433 5.11849,3.9694 10.25185,3.9694 3.45535,0 7.93264,-0.8586 9.94936,-1.908 z m 259.35191,8.7132 c -12.00783,-3.6198 -19.22787,-15.917 -19.22787,-32.7493 0,-19.8534 9.78926,-32.3474 26.27966,-33.5402 10.32466,-0.7467 16.42248,1.4158 22.283,7.9027 5.12184,5.6693 9.46131,17.6431 8.72264,24.0677 l -0.43119,3.7502 -24.10316,0.3709 c -23.68275,0.3641 -24.10317,0.4218 -24.10317,3.3054 0,4.9916 5.58901,14.7868 10.03033,17.579 3.25933,2.049 6.01238,2.5436 12.01731,2.1584 8.54462,-0.5481 13.08821,-3.5462 15.98934,-10.5502 0.87535,-2.113 2.4521,-4.1721 3.50404,-4.5758 2.7109,-1.0403 5.9863,0.4782 5.9863,2.775 0,2.927 -4.77089,11.6858 -7.91319,14.5273 -5.96257,5.3923 -19.79413,7.7642 -29.03404,4.9789 z m 28.38173,-42.8033 c -2.28528,-14.0817 -18.29051,-21.2575 -29.42452,-13.1915 -3.9603,2.869 -10.18705,14.4493 -8.89426,16.5411 0.54039,0.8743 8.18664,1.4162 19.98368,1.4162 h 19.1084 z m 309.28908,41.5931 c -7.35018,-3.3388 -12.35487,-9.6055 -15.03574,-18.8271 -4.5001,-15.4793 0.069,-33.1706 10.75519,-41.6545 4.35814,-3.4595 6.61293,-4.1847 14.37596,-4.6232 16.95013,-0.9578 26.55073,7.2705 30.05723,25.76 2.0223,10.664 2.02,10.6649 -24.64656,10.6649 h -22.91843 v 3.4385 c 0,5.4118 3.31529,11.9771 8.06711,15.9754 3.461,2.9122 5.75808,3.671 11.11547,3.671 8.76135,0 14.09611,-2.87 17.41021,-9.3661 2.8137,-5.5154 5.5192,-7.3585 8.8977,-6.0622 2.807,1.0772 2.586,2.5094 -1.5635,10.133 -6.5026,11.9478 -23.21415,16.9317 -36.51464,10.8903 z m 30.99214,-41.538 c -0.6164,-8.3829 -9.72781,-16.3371 -18.71464,-16.3371 -8.94317,0 -17.33632,7.2987 -19.17263,16.673 l -0.87199,4.4516 19.52777,-0.3778 19.52779,-0.3781 z m 28.093,41.0351 c -6.9063,-3.4889 -12.1806,-10.4849 -12.1806,-16.1563 0,-3.2204 0.5689,-3.8731 3.3766,-3.8731 2.5429,0 3.8433,1.1171 5.2671,4.5247 3.011,7.2067 8.1615,10.4126 16.7284,10.4126 11.4959,0 16.7236,-3.6429 16.7236,-11.6536 0,-5.2916 -4.2066,-8.0746 -17.0868,-11.305 -18.4555,-4.6288 -23.6509,-8.973 -23.6509,-19.7757 0,-5.559 5.3841,-12.4921 11.7748,-15.1622 6.2737,-2.6213 19.1392,-2.3489 24.8621,0.5261 9.0541,4.5491 14.7545,17.9905 7.6296,17.9905 -2.2957,0 -4.1021,-1.4262 -6.104,-4.8194 -4.9874,-8.4528 -16.8841,-10.9796 -25.4059,-5.3959 -2.4022,1.5742 -3.2512,3.3685 -3.2512,6.8719 0,6.0435 4.7975,9.2024 18.6605,12.2867 16.4622,3.6624 22.698,9.6949 21.5882,20.8843 -1.4339,14.4602 -23.1365,22.6237 -38.9315,14.6444 z m 63.0438,0.4652 c -11.3995,-5.177 -16.8338,-15.3231 -16.8338,-31.4293 0,-21.124 10.6571,-33.8769 28.3098,-33.8769 8.8434,0 14.8257,2.4431 20.3882,8.3261 4.8136,5.0911 8.7422,16.3751 8.0835,23.2174 l -0.4276,4.4415 -23.4793,0.3717 c -18.4434,0.2921 -23.633,0.7734 -24.1976,2.2443 -0.3952,1.0299 0.6194,4.9828 2.2546,8.7841 3.7561,8.7312 9.2153,12.3637 18.5804,12.3637 7.8367,0 12.2345,-2.7817 17.4432,-11.0327 3.4323,-5.437 6.8645,-6.781 8.2297,-3.2225 1.4063,3.6641 -0.9479,9.2228 -6.0788,14.3538 -8.0564,8.0562 -21.5331,10.3358 -32.2723,5.4587 z m 30.6884,-40.5239 c -0.014,-7.9555 -7.7045,-16.0731 -16.6021,-17.5172 -9.4774,-1.5379 -21.4146,8.7642 -21.4146,18.4815 0,2.656 0.7817,2.77 19.011,2.77 h 19.0107 l -0.013,-3.7343 z m 26.4846,41.197 c -2.2406,-0.9957 -5.6014,-3.4651 -7.4685,-5.4878 -4.5195,-4.8956 -4.9073,-17.7666 -0.6789,-22.524 4.1091,-4.6232 12.333,-7.7239 25.0831,-9.4571 13.1751,-1.7907 13.3653,-1.8693 15.0063,-6.1856 1.9372,-5.0951 -0.9787,-11.4285 -6.2815,-13.6441 -10.3579,-4.3279 -21.2567,-0.9414 -24.6333,7.6541 -1.8468,4.7017 -2.6944,5.4667 -5.673,5.1204 -2.9671,-0.345 -3.4565,-1.0229 -3.2053,-4.4388 0.3374,-4.5906 3.5929,-9.4609 9.0451,-13.5317 2.8496,-2.1275 6.2892,-2.9094 14.4201,-3.2787 9.1295,-0.4146 11.4706,-0.04 16.1423,2.5861 8.2232,4.6219 9.6603,9.5589 9.6603,33.1892 0,19.4414 0.031,19.6525 3.3947,21.8554 3.9958,2.6181 4.4557,6.8241 0.8704,7.9621 -3.5664,1.1318 -7.1751,-0.3842 -10.6667,-4.4812 l -3.0064,-3.5281 -3.8853,3.7222 c -6.4923,6.2201 -19.5232,8.2902 -28.1234,4.4676 z m 22.0214,-8.4981 c 5.5637,-2.6402 9.362,-8.2433 10.6149,-15.6581 1.4407,-8.5276 -0.043,-9.1967 -14.3966,-6.4996 -14.8408,2.7886 -19.4245,5.6872 -20.0178,12.6593 -0.8777,10.3123 11.5946,15.2899 23.7995,9.4984 z m 85.2546,8.3744 c -17.4026,-6.156 -24.9572,-32.2673 -14.7577,-51.0073 5.3697,-9.8659 12.2535,-14.0307 24.1235,-14.5951 12.7437,-0.606 20.2886,3.1048 25.0249,12.3083 3.5569,6.9119 3.1013,9.1655 -1.853,9.1655 -2.4485,0 -3.97,-1.3385 -5.9629,-5.2448 -2.8029,-5.4941 -9.4258,-9.6923 -15.2895,-9.6923 -1.7828,0 -5.941,1.3748 -9.2408,3.0553 -8.224,4.1879 -12.2289,11.9472 -12.2289,23.6918 0,15.3015 7.2147,24.9392 19.3399,25.8351 9.1624,0.6774 14.4561,-2.479 18.4662,-11.0104 2.0769,-4.4186 3.7566,-6.2659 5.6969,-6.2659 4.0277,0 4.7051,3.4785 1.8921,9.717 -6.1254,13.5834 -20.4073,19.2795 -35.2107,14.0428 z m -933.42509,-1.1774 c -1.09817,-1.3231 -1.44005,-14.1602 -1.18464,-44.472 l 0.359,-42.6117 h 3.39488 3.39475 l 0.3589,43.3614 c 0.27968,33.7863 -0.0203,43.602 -1.35787,44.4512 -2.39548,1.5205 -3.19567,1.403 -4.96502,-0.7289 z m 84.82054,-0.2738 c -3.20454,-3.2043 -3.18926,-59.122 0.0174,-61.783 2.92048,-2.4238 6.54359,-0.059 7.10476,4.6369 l 0.42888,3.5895 5.00276,-3.9527 c 6.75065,-5.3335 15.08528,-7.5787 17.85433,-4.8099 2.85632,2.8565 0.33953,6.4318 -5.3458,7.5948 -5.19885,1.0631 -10.27069,4.578 -14.21146,9.8486 -2.48479,3.3235 -2.84949,6.0618 -3.24201,24.3421 -0.41825,19.4775 -1.0395,22.5677 -4.55293,22.6469 -0.50678,0.014 -1.88167,-0.9394 -3.05532,-2.1132 z m 73.32781,0 c -1.84604,-1.8459 -2.13396,-7.6855 -2.13396,-43.2872 0,-33.2883 0.35738,-41.4499 1.86968,-42.705 1.30543,-1.0834 10.62906,-1.4409 30.89279,-1.1848 l 29.02305,0.3671 v 3.3949 3.3946 l -25.06101,0.3712 c -17.96684,0.2661 -25.36063,0.8427 -26.11928,2.037 -1.74569,2.7479 -1.30308,26.0408 0.52981,27.8736 1.1374,1.1374 8.48443,1.6295 24.32945,1.6295 23.65066,0 25.43039,0.4526 22.69496,5.7711 -1.09084,2.1208 -3.68317,2.3764 -24.11385,2.3764 -19.6215,0 -23.00935,0.3069 -23.71584,2.148 -1.68085,4.3801 -0.89847,28.69 0.97332,30.2437 1.11834,0.928 10.99011,1.6323 26.12263,1.8636 22.56815,0.3449 24.36032,0.556 24.81545,2.9249 0.2698,1.4042 -0.33343,3.0752 -1.34047,3.7134 -1.00705,0.6382 -14.16143,1.1698 -29.23192,1.1812 -23.11844,0.017 -27.73453,-0.3127 -29.53481,-2.1132 z m 70.61193,0 c -1.8059,-1.8059 -2.13384,-6.5648 -2.13384,-30.9605 0,-20.6101 0.46441,-29.2912 1.62949,-30.4562 2.53266,-2.5327 6.69412,-1.9285 7.4825,1.0863 0.91823,3.5114 1.94472,3.4242 7.99121,-0.6789 6.8869,-4.6736 19.73384,-4.8252 26.48895,-0.3126 8.39126,5.6059 9.36235,9.4599 9.36467,37.1706 0,20.6481 -0.32761,24.7633 -2.03473,25.4184 -1.12029,0.43 -2.95347,0.43 -4.07376,0 -1.69002,-0.6485 -2.03822,-4.3994 -2.04452,-22.0235 0,-11.6833 -0.65274,-23.5655 -1.4412,-26.405 -3.76275,-13.55 -23.19748,-13.7198 -30.7591,-0.2687 -2.78654,4.957 -3.05542,7.2175 -3.07578,25.8683 -0.0153,14.0578 -0.53092,20.9454 -1.65183,22.0662 -2.14748,2.1476 -3.18098,2.0568 -5.74206,-0.5044 z m 129.21001,0.5934 c -2.10492,-1.1779 -2.34128,-4.3026 -2.34128,-30.9508 0,-24.5777 0.34494,-29.9268 2.01965,-31.3166 2.84493,-2.3611 6.12787,-0.6942 6.12787,3.1116 0,5.0418 1.40271,5.2637 6.26903,0.991 4.80551,-4.2194 12.98238,-7.1764 16.31146,-5.8988 1.21999,0.468 1.84684,2.1275 1.59609,4.2249 -0.33058,2.7658 -1.51095,3.746 -5.92334,4.9188 -6.99712,1.8599 -10.35817,4.3323 -13.98912,10.2911 -2.59652,4.2613 -2.89656,6.7486 -2.90103,24.0555 0,17.0974 -0.28058,19.4498 -2.41656,20.5931 -1.5297,0.8186 -3.26746,0.8115 -4.75277,-0.02 z m 196.9338,0.074 c -2.18062,-1.27 -2.37631,-4.7805 -2.37631,-42.6222 0,-22.681 0.37098,-42.2046 0.82423,-43.3859 0.70606,-1.8402 4.06417,-2.1471 23.42418,-2.1405 25.59239,0.014 31.50896,1.1613 37.69118,7.3434 9.40386,9.4038 8.6679,26.4946 -1.48491,34.4806 -4.0759,3.2062 -4.3188,5.1201 -0.88318,6.959 1.3965,0.7473 3.48257,3.3658 4.63616,5.8188 2.1045,4.4759 5.50436,31.8161 4.21571,33.9013 -1.12971,1.8277 -5.50283,1.2611 -7.33875,-0.9511 -0.94184,-1.1347 -2.21778,-7.5407 -2.83557,-14.2355 -0.61779,-6.6947 -2.03186,-13.9294 -3.14257,-16.0774 -3.11843,-6.0304 -7.61462,-7.1345 -27.31406,-6.7068 l -17.6079,0.3823 -0.3809,18.2774 c -0.41945,20.1243 -1.349,22.4968 -7.42731,18.9566 z m 47.29088,-48.634 c 13.68327,-6.2147 12.45858,-25.8683 -1.87335,-30.0621 -2.78823,-0.816 -12.26221,-1.2832 -21.31437,-1.0513 l -16.29495,0.4176 -0.38817,14.85 c -0.21328,8.1675 -0.0796,15.6531 0.29696,16.6346 1.15792,3.0173 32.57258,2.391 39.57388,-0.7888 z m 280.44782,48.2323 c -1.0855,-1.3078 -1.441,-10.982 -1.1847,-32.2505 l 0.366,-30.3824 h 3.3946 c 2.8375,0 3.4649,0.7247 3.8205,4.4132 0.2339,2.4275 0.7644,4.4134 1.1786,4.4134 0.4142,0 2.8029,-1.7999 5.3085,-3.9999 4.8359,-4.2458 13.0088,-7.2105 16.3467,-5.9297 1.2279,0.4714 1.8485,2.1345 1.5962,4.2785 -0.3371,2.8622 -1.3755,3.7061 -5.6466,4.5874 -2.8784,0.5938 -7.0722,2.3892 -9.3195,3.9895 -6.5884,4.6914 -7.8526,9.6708 -7.8526,30.9308 0,17.4017 -0.2218,19.1254 -2.6266,20.4126 -3.3476,1.7915 -3.5227,1.7764 -5.3811,-0.4629 z m 99.2601,0.239 c -1.1981,-1.1981 -1.6295,-12.8946 -1.6295,-44.175 0,-38.137 0.2302,-42.634 2.2215,-43.3982 5.1493,-1.9761 6.5865,1.247 6.9918,15.6796 0.2129,7.5761 0.7298,13.7745 1.1485,13.7745 0.4187,0 2.675,-1.3628 5.0143,-3.0285 5.8393,-4.1581 19.9945,-4.9311 26.6734,-1.4569 8.9479,4.6549 10.1712,8.8262 10.6949,36.4661 0.41,21.6335 0.197,24.7338 -1.8112,26.4007 -1.662,1.3794 -2.8858,1.5049 -4.5383,0.4654 -1.9314,-1.2149 -2.3616,-5.0129 -2.9416,-25.9558 -0.6531,-23.6001 -0.8031,-24.6649 -3.9513,-28.0122 -6.3667,-6.7691 -17.8006,-5.8549 -25.3593,2.0275 l -3.9583,4.1278 -0.4041,22.6597 c -0.3409,19.1136 -0.7534,22.9255 -2.6359,24.3573 -2.7694,2.1062 -3.4681,2.1148 -5.5149,0.07 z M 229.54318,866.11984 c -20.11117,-2.0931 -36.17708,-10.39821 -44.03365,-22.76259 -5.13132,-8.07552 -8.30499,-18.85177 -7.76327,-26.36105 l 0.42019,-5.82501 h 7.46855 7.46864 l 0.87301,6.78962 c 1.08199,8.41472 3.08964,13.64495 7.41365,19.31411 13.685,17.94189 56.53308,20.81348 74.97851,5.02498 16.95399,-14.51207 13.61003,-35.28408 -7.2216,-44.85929 -3.73419,-1.71647 -16.87209,-5.59918 -29.19524,-8.62828 -35.8739,-8.81796 -41.87366,-11.37378 -50.0942,-21.33954 -5.20271,-6.30713 -6.92103,-12.04121 -6.93101,-23.12835 -0.0203,-22.13989 14.98149,-38.90045 39.37215,-43.98935 16.1866,-3.37717 42.06286,0.7229 53.35097,8.45338 13.04369,8.9327 21.33177,22.19102 21.3337,34.12712 v 6.45014 h -7.44276 c -7.01361,0 -7.49035,-0.2153 -8.26944,-3.73429 -2.82434,-12.7565 -9.7464,-22.48612 -19.53281,-27.45521 -16.28519,-8.26892 -42.86713,-6.09104 -54.15361,4.43687 -10.59758,9.88514 -11.65962,29.36369 -2.06071,37.79492 4.97887,4.37324 11.39483,6.59277 38.31735,13.25539 30.44712,7.53486 42.35864,12.51441 49.89785,20.85935 6.71956,7.43772 9.02513,13.6647 9.1734,24.77597 0.44149,33.07443 -28.41371,51.48035 -73.37078,46.80111 z m 518.74987,0.001 c -29.12386,-3.03252 -46.84446,-17.77557 -51.07894,-42.49634 -2.06121,-12.03296 -1.29576,-13.37113 7.35856,-12.8653 l 7.03121,0.411 1.69233,8.32601 c 2.06419,10.15545 4.44755,14.95322 10.24329,20.61963 8.64851,8.45551 21.47335,12.47102 39.83045,12.47102 16.91479,0 31.58932,-6.49643 38.7619,-17.15972 2.77494,-4.1256 3.39478,-6.69614 3.39478,-14.07875 0,-17.39013 -7.59931,-22.49008 -49.56421,-33.26288 -30.57097,-7.84788 -39.85284,-11.77721 -46.30203,-19.60119 -14.9983,-18.19557 -7.89273,-48.73306 14.40921,-61.92651 11.84499,-7.00726 34.98012,-9.36908 52.14403,-5.32329 22.52089,5.30851 38.82971,22.00604 39.82208,40.77126 l 0.35432,6.70065 h -7.28888 -7.28878 l -2.51312,-8.14754 c -3.36227,-10.90084 -8.93976,-17.27226 -19.80075,-22.61909 -8.06829,-3.97199 -10.18656,-4.41615 -21.33889,-4.47454 -15.11919,-0.0793 -24.60556,2.85949 -32.0188,9.91862 -8.71308,8.29695 -10.8187,24.75059 -4.33297,33.85899 4.33562,6.08879 11.51533,8.93538 41.58656,16.4881 37.14746,9.33 47.87337,14.96443 55.41464,29.10975 2.44885,4.59335 2.99267,7.83671 2.99045,17.83561 0,10.67502 -0.47113,13.11255 -3.70438,19.26536 -8.81269,16.77038 -24.54914,25.0501 -50.59028,26.61819 -5.22808,0.31482 -13.87332,0.11748 -19.21178,-0.43834 z m -409.94148,-4.35211 c -0.36042,-0.94195 -0.49658,-36.84896 -0.30277,-79.79322 l 0.35247,-78.08053 55.41036,-0.35476 55.41036,-0.35479 -0.41449,6.46542 -0.41451,6.46545 -46.84832,0.67894 -46.84833,0.67897 v 27.8374 27.83741 l 44.13255,0.67896 44.13244,0.67896 0.45199,3.19344 c 0.2486,1.75639 0.0866,4.6505 -0.36064,6.43136 l -0.81261,3.2379 -43.77182,0.35827 -43.77191,0.35826 -0.36664,29.77735 c -0.28211,22.91584 0.0306,30.02966 1.35798,30.87191 0.94847,0.6021 22.68702,1.10397 48.30776,1.11539 l 46.58322,0.0204 -0.4138,6.45021 -0.41388,6.45009 -55.37217,0.35471 c -43.57088,0.27917 -55.5117,-0.0116 -56.02724,-1.35789 z m 145.63637,0.8394 C 483.4556,862.07579 483.02,825.96461 483.02,782.36105 V 703.0818 l 45.8299,0.4066 45.82987,0.40659 7.66072,3.76208 c 16.29029,7.99991 23.98033,22.01132 22.4927,40.98187 -0.41277,5.26513 -1.7278,11.87805 -2.92211,14.6954 -2.89024,6.8181 -10.89133,15.50087 -17.29375,18.76712 -2.85163,1.45481 -5.1848,2.92581 -5.1848,3.26889 0,0.34305 2.41922,1.85792 5.37597,3.36637 12.33566,6.29317 15.81956,14.18345 17.81131,40.33922 0.74998,9.84782 2.21268,21.15253 3.25036,25.1216 1.03779,3.96907 1.40421,7.71174 0.81434,8.31701 -0.58988,0.60537 -4.05554,0.91089 -7.70145,0.67898 -8.69445,-0.553 -9.59842,-2.54661 -11.32417,-24.97545 -2.0993,-27.28492 -6.39214,-38.08747 -17.00044,-42.78004 -5.48421,-2.42592 -8.75299,-2.61733 -39.00408,-2.284 l -33.01818,0.36384 -0.679,34.62699 -0.679,34.62704 -6.16117,0.40207 c -3.38865,0.22111 -6.59674,-0.0337 -7.12908,-0.56584 z m 90.80275,-89.46573 c 16.35189,-9.99021 19.09414,-35.75038 5.17928,-48.65296 -7.318,-6.78563 -13.005,-7.6942 -48.16129,-7.6942 -28.11226,0 -32.30773,0.27285 -33.02727,2.14795 -1.17588,3.06442 -1.02444,56.94774 0.16336,58.13563 0.54324,0.54321 16.32807,0.79781 35.07748,0.56581 l 34.08981,-0.42185 z m 70.44542,88.61105 c -0.35707,-0.93359 -0.49069,-36.83368 -0.29679,-79.77794 l 0.35249,-78.08053 h 7.46854 7.46854 l 0.3755,76.72263 c 0.20644,42.19746 0.0418,78.09753 -0.36543,79.77796 -0.64577,2.66353 -1.61339,3.05534 -7.54716,3.05534 -4.19343,0 -7.05555,-0.65161 -7.45569,-1.69746 z"
       style="fill:#47484b;stroke-width:1.35792243"
       sodipodi:nodetypes="ccccccccscccssccccccccscccccscsccccsccscccscccccccssscscccccccccccsccccsccccccccccsccscccccccscccccccccccsccccsccscccccscccccccccscccccssccccccsccccccsccccccccccccccccccccccccccscccccccccccccsccccccsccccscccccccccscscscscccscccsssccsccccccccccccccscccccscsccscscscscccscccscscccccccccscccsccccccscccccccsccccccccccccccscscccccccccssccccsscccscccscccccccscccsccccscsccccccccsscccccccccccscsccccscccccccccccccccccccccccscccccccccccccccsccscccccsccccscccccscccscccscscscccccsccccccsscsscsccsccsccccssccccccscccccccsscccccccccccccccscccccccccccccccscscsccscccccccscccccccccccccccsccccccccscsccccccccsccccccccccccccscsccccccccccsscccccccccscccccccccccccscscccccscccsccsccccccccccccccccccccccccccccccsccccscccccccccsscssccscccccscccsscscccccccccccccccccccccccccccccccscccccccscccccccscccccccssccscccscccccsc" />
    <path
       inkscape:connector-curvature="0"
       id="path28"
       d="m 986.80922,1012.7836 c -37.6997,-2.1751 -82.03795,-11.9776 -112.9326,-24.96726 -5.72795,-2.40831 -5.34164,-1.17052 -9.2488,-29.63944 -4.04841,-29.49858 -3.85878,-30.9033 4.17224,-30.9033 5.19585,0 30.6364,-6.83813 40.60764,-10.91494 5.60144,-2.29018 15.49544,-6.88183 21.98678,-10.20379 6.49132,-3.32184 12.45593,-6.03976 13.25487,-6.03976 0.79882,0 10.40647,13.5962 21.35016,30.21382 38.63079,58.65918 50.99319,77.64567 51.61959,79.27777 0.8917,2.3238 -4.0016,4.6124 -9.3332,4.3651 -2.4765,-0.1146 -12.14085,-0.6494 -21.47668,-1.1882 z m 73.95598,-19.31127 c -5.9192,-6.9085 -14.2149,-16.53285 -18.4347,-21.38728 -33.2678,-38.27265 -51.67324,-59.66147 -67.46061,-78.39581 l -8.54436,-10.13939 10.58425,-11.06771 C 989.595,859.21713 998.589,847.42826 1006.85,833.2374 c 4.6798,-8.03906 6.8258,-10.52386 9.0891,-10.52386 3.5228,0 214.4815,104.85906 216.0434,107.38642 3.7232,6.02408 -59.5362,45.16611 -93.7649,58.01768 -21.9788,8.25216 -27.0185,9.89314 -42.5435,13.85296 -23.4501,5.9811 -22.2532,6.2726 -34.9089,-8.49827 z M 821.14268,961.49545 c -21.98316,-13.81759 -37.82949,-25.61755 -49.99732,-37.23054 -4.06644,-3.88098 -6.77855,-7.26138 -6.02705,-7.51193 0.7516,-0.25044 8.33187,1.65589 16.84502,4.23631 13.8334,4.19314 20.06098,5.40204 45.29002,8.79222 l 6.78965,0.91242 v 18.20592 c 0,10.96846 -0.53987,18.36339 -1.3579,18.60155 -0.74692,0.21759 -5.94097,-2.48511 -11.54242,-6.00595 z m 435.89312,-84.75104 c -10.8294,-3.76762 -41.9938,-14.4639 -69.2539,-23.76972 -27.2605,-9.3057 -59.0356,-20.18316 -70.6122,-24.17211 -11.5761,-3.98892 -36.3119,-12.49978 -54.9682,-18.913 -18.6563,-6.41324 -34.718,-12.45818 -35.6931,-13.43318 -1.4584,-1.45837 -1.1727,-4.16372 1.6119,-15.25573 1.8614,-7.41564 3.9713,-20.42931 4.6884,-28.91925 0.7172,-8.48997 1.8126,-15.9109 2.4343,-16.49097 0.6216,-0.58011 72.3195,-1.27212 159.3284,-1.53778 l 158.1979,-0.48305 -0.2366,6.11066 c -0.256,6.61024 -5.3255,23.92759 -13.3172,45.4904 -12.9686,34.99107 -52.0097,98.7443 -60.2191,98.33663 -1.249,-0.0621 -11.131,-3.19538 -21.9606,-6.9629 z"
       style="fill:#024f81;stroke-width:1.35792243" />
  </g>
</svg>
