<?xml version="1.0" encoding="UTF-8" standalone="no"?>
<!-- Created with Inkscape (http://www.inkscape.org/) -->

<svg
   xmlns:dc="http://purl.org/dc/elements/1.1/"
   xmlns:cc="http://creativecommons.org/ns#"
   xmlns:rdf="http://www.w3.org/1999/02/22-rdf-syntax-ns#"
   xmlns:svg="http://www.w3.org/2000/svg"
   xmlns="http://www.w3.org/2000/svg"
   xmlns:xlink="http://www.w3.org/1999/xlink"
   xmlns:sodipodi="http://sodipodi.sourceforge.net/DTD/sodipodi-0.dtd"
   xmlns:inkscape="http://www.inkscape.org/namespaces/inkscape"
   width="243.01805"
   height="237"
   id="svg2"
   version="1.1"
   inkscape:version="0.92.1 r15371"
   sodipodi:docname="logo.svg"
   inkscape:export-filename="C:\Users\karl\Desktop\logo.png"
   inkscape:export-xdpi="149.87285"
   inkscape:export-ydpi="149.87285">
  <defs
     id="defs4">
    <linearGradient
       id="linearGradient4564"
       inkscape:collect="always">
      <stop
         id="stop4560"
         offset="0"
         style="stop-color:#fff9a1;stop-opacity:1" />
      <stop
         id="stop4562"
         offset="1"
         style="stop-color:#e6ca00;stop-opacity:0" />
    </linearGradient>
    <linearGradient
       id="linearGradient4558"
       inkscape:collect="always">
      <stop
         id="stop4554"
         offset="0"
         style="stop-color:#413caa;stop-opacity:1" />
      <stop
         id="stop4556"
         offset="1"
         style="stop-color:#5d3caa;stop-opacity:0" />
    </linearGradient>
    <linearGradient
       id="linearGradient4581"
       inkscape:collect="always">
      <stop
         id="stop4577"
         offset="0"
         style="stop-color:#e60000;stop-opacity:1" />
      <stop
         id="stop4579"
         offset="1"
         style="stop-color:#aa3c3c;stop-opacity:0" />
    </linearGradient>
    <linearGradient
       inkscape:collect="always"
       id="linearGradient5058">
      <stop
         style="stop-color:#aa783c;stop-opacity:1;"
         offset="0"
         id="stop5054" />
      <stop
         style="stop-color:#aa783c;stop-opacity:0;"
         offset="1"
         id="stop5056" />
    </linearGradient>
    <linearGradient
       gradientTransform="matrix(0.950226,0,0,0.868966,0.142211,18.84154)"
       gradientUnits="userSpaceOnUse"
       xlink:href="#linearGradient28888"
       id="linearGradient28894"
       y2="102.36218"
       x2="634.28571"
       y1="102.36218"
       x1="2.8571429" />
    <linearGradient
       id="linearGradient28888">
      <stop
         id="stop28890"
         offset="0"
         style="stop-color:black;stop-opacity:1" />
      <stop
         id="stop29799"
         offset="0.05"
         style="stop-color:#35005e;stop-opacity:1" />
      <stop
         id="stop28896"
         offset="0.1"
         style="stop-color:#5000a2;stop-opacity:1" />
      <stop
         id="stop29801"
         offset="0.15000001"
         style="stop-color:#4a00d3;stop-opacity:1" />
      <stop
         id="stop28898"
         offset="0.2"
         style="stop-color:#2802e9;stop-opacity:1" />
      <stop
         id="stop29803"
         offset="0.25"
         style="stop-color:#0e3af8;stop-opacity:1" />
      <stop
         id="stop28900"
         offset="0.30000001"
         style="stop-color:#018de6;stop-opacity:1" />
      <stop
         id="stop29805"
         offset="0.35000002"
         style="stop-color:#00cea0;stop-opacity:1" />
      <stop
         id="stop28902"
         offset="0.40000001"
         style="stop-color:#00d24a;stop-opacity:1" />
      <stop
         id="stop29807"
         offset="0.44999999"
         style="stop-color:#00bc0d;stop-opacity:1" />
      <stop
         id="stop28904"
         offset="0.5"
         style="stop-color:#00b700;stop-opacity:1" />
      <stop
         id="stop29809"
         offset="0.55000001"
         style="stop-color:#00bc0d;stop-opacity:1" />
      <stop
         id="stop28906"
         offset="0.60000002"
         style="stop-color:#65d200;stop-opacity:1" />
      <stop
         id="stop29811"
         offset="0.64999998"
         style="stop-color:#bad600;stop-opacity:1" />
      <stop
         id="stop28908"
         offset="0.69999999"
         style="stop-color:#f9b700;stop-opacity:1" />
      <stop
         id="stop29813"
         offset="0.75"
         style="stop-color:#ff7a00;stop-opacity:1" />
      <stop
         id="stop28910"
         offset="0.80000001"
         style="stop-color:#f40;stop-opacity:1" />
      <stop
         id="stop29815"
         offset="0.85000002"
         style="stop-color:#ff2501;stop-opacity:1" />
      <stop
         id="stop28912"
         offset="0.89999998"
         style="stop-color:#d00e00;stop-opacity:1" />
      <stop
         id="stop29817"
         offset="0.94999999"
         style="stop-color:#7b0200;stop-opacity:1" />
      <stop
         id="stop28892"
         offset="1"
         style="stop-color:black;stop-opacity:1" />
    </linearGradient>
    <linearGradient
       inkscape:collect="always"
       xlink:href="#linearGradient28888"
       id="linearGradient4236"
       gradientUnits="userSpaceOnUse"
       gradientTransform="matrix(0,-0.10726637,1.7821122,0,-61.90982,966.02116)"
       x1="2.8571429"
       y1="102.36218"
       x2="634.28571"
       y2="102.36218" />
    <linearGradient
       inkscape:collect="always"
       xlink:href="#linearGradient5058"
       id="linearGradient5060"
       x1="50.058872"
       y1="1211.7891"
       x2="-101.01855"
       y2="1073.9391"
       gradientUnits="userSpaceOnUse"
       gradientTransform="matrix(0.77443732,0,0,1.2912601,199.23254,-808.73476)" />
    <linearGradient
       inkscape:collect="always"
       xlink:href="#linearGradient4581"
       id="linearGradient4573"
       gradientUnits="userSpaceOnUse"
       gradientTransform="matrix(0,0.77443733,-1.2912601,0,2022.4204,912.78725)"
       x1="-1.5915308"
       y1="1153.3191"
       x2="-92.625359"
       y2="1071.2285" />
    <linearGradient
       inkscape:collect="always"
       xlink:href="#linearGradient4581"
       id="linearGradient4575"
       gradientUnits="userSpaceOnUse"
       gradientTransform="matrix(0.77443732,0,0,1.2912601,553.1637,-607.9987)"
       x1="-22.897322"
       y1="1152.5447"
       x2="-76.484604"
       y2="1104.142" />
    <linearGradient
       inkscape:collect="always"
       xlink:href="#linearGradient4558"
       id="linearGradient4591"
       x1="524.40735"
       y1="894.68726"
       x2="474.40735"
       y2="938.68726"
       gradientUnits="userSpaceOnUse"
       gradientTransform="translate(0.353553)" />
    <linearGradient
       inkscape:collect="always"
       xlink:href="#linearGradient4564"
       id="linearGradient4601"
       x1="535.90735"
       y1="889.68726"
       x2="574.90735"
       y2="940.68726"
       gradientUnits="userSpaceOnUse" />
  </defs>
  <sodipodi:namedview
     id="base"
     pagecolor="#ffffff"
     bordercolor="#666666"
     borderopacity="1.0"
     inkscape:pageopacity="0"
     inkscape:pageshadow="2"
     inkscape:zoom="2"
     inkscape:cx="244.35275"
     inkscape:cy="154.70489"
     inkscape:document-units="px"
     inkscape:current-layer="g5241"
     showgrid="false"
     inkscape:window-width="1920"
     inkscape:window-height="1017"
     inkscape:window-x="1432"
     inkscape:window-y="-8"
     inkscape:window-maximized="1"
     borderlayer="true"
     inkscape:snap-global="false"
     showguides="false"
     fit-margin-top="0"
     fit-margin-left="0"
     fit-margin-right="0"
     fit-margin-bottom="0" />
  <metadata
     id="metadata7">
    <rdf:RDF>
      <cc:Work
         rdf:about="">
        <dc:format>image/svg+xml</dc:format>
        <dc:type
           rdf:resource="http://purl.org/dc/dcmitype/StillImage" />
        <dc:title />
      </cc:Work>
    </rdf:RDF>
  </metadata>
  <g
     inkscape:label="Layer 1"
     inkscape:groupmode="layer"
     id="layer1"
     transform="translate(0.06024401,-812.7827)">
    <g
       id="g5241"
       transform="translate(-354.9676,89.095454)">
      <path
         sodipodi:nodetypes="cccsssssscc"
         inkscape:connector-curvature="0"
         id="rect5200"
         d="m 358.4233,727.18725 0.2873,63.2109 v 0 142.7285 c 0,13.3301 10.7324,24.0606 24.0625,24.0606 h 187.5898 c 13.3301,0 24.0625,-10.7305 24.0625,-24.0606 v -181.8769 c 0,-13.3301 -10.7324,-24.0625 -24.0625,-24.0625 H 411.2828 Z"
         style="opacity:1;fill:#e5f7ff;fill-opacity:1;stroke:none;stroke-width:7;stroke-miterlimit:4;stroke-dasharray:none;stroke-dashoffset:0;stroke-opacity:1" />
      <path
         inkscape:connector-curvature="0"
         id="path5086"
         d="m 358.6089,884.82205 c 0.02,16.1028 0.044,32.2057 0.1,48.3046 0,13.3301 10.7324,24.0606 24.0625,24.0606 h 143.5547 v -45.211 a 140.63786,140.64756 0 0 0 -30.6582,-27.1542 z"
         style="font-style:normal;font-variant:normal;font-weight:normal;font-stretch:normal;line-height:0%;font-family:'Bauhaus 93';-inkscape-font-specification:'Bauhaus 93, ';letter-spacing:0px;word-spacing:0px;fill:#c72023;fill-opacity:1;fill-rule:evenodd;stroke:none;stroke-width:3.45652699;stroke-miterlimit:4;stroke-dasharray:none;stroke-opacity:1" />
      <path
         inkscape:connector-curvature="0"
         id="path5070"
         d="m 552.353,881.59545 a 140.64756,140.63786 0 0 0 -27.1543,30.6582 v 44.9336 h 45.1621 c 13.3301,0 24.0625,-10.7305 24.0625,-24.0606 v -51.5312 z"
         style="font-style:normal;font-variant:normal;font-weight:normal;font-stretch:normal;line-height:0%;font-family:'Bauhaus 93';-inkscape-font-specification:'Bauhaus 93, ';letter-spacing:0px;word-spacing:0px;fill:#aa783c;fill-opacity:1;fill-rule:evenodd;stroke:none;stroke-width:3.45652699;stroke-miterlimit:4;stroke-dasharray:none;stroke-opacity:1" />
      <path
         inkscape:connector-curvature="0"
         id="path5062"
         d="m 526.9722,727.18725 v 131.8808 a 140.63786,140.64756 0 0 0 30.6582,27.1543 h 36.7929 v -134.9726 c 0,-13.3301 -10.7324,-24.0625 -24.0625,-24.0625 z"
         style="font-style:normal;font-variant:normal;font-weight:normal;font-stretch:normal;line-height:0%;font-family:'Bauhaus 93';-inkscape-font-specification:'Bauhaus 93, ';letter-spacing:0px;word-spacing:0px;fill:#024f81;fill-opacity:1;fill-rule:evenodd;stroke:none;stroke-width:3.45652699;stroke-miterlimit:4;stroke-dasharray:none;stroke-opacity:1" />
      <path
         inkscape:connector-curvature="0"
         id="path5052"
         d="m 358.4233,727.18725 v 63.2109 c 0.1378,32.0037 0.1476,64.0281 0.1875,96.0508 h 140.834 a 140.64756,140.63786 0 0 0 27.1543,-30.6582 V 727.18725 H 411.2808 Z"
         style="font-style:normal;font-variant:normal;font-weight:normal;font-stretch:normal;line-height:0%;font-family:'Bauhaus 93';-inkscape-font-specification:'Bauhaus 93, ';letter-spacing:0px;word-spacing:0px;fill:#e4ba09;fill-opacity:1;fill-rule:evenodd;stroke:none;stroke-width:3.45652699;stroke-miterlimit:4;stroke-dasharray:none;stroke-opacity:1" />
      <path
         inkscape:connector-curvature="0"
         id="path4567"
         d="m 358.9233,727.68725 v 63.2109 c 0.1378,32.0037 0.1476,64.0281 0.1875,96.0508 h 140.834 a 140.64756,140.63786 0 0 0 27.1543,-30.6582 V 727.68725 H 411.7808 Z"
         style="font-style:normal;font-variant:normal;font-weight:normal;font-stretch:normal;line-height:0%;font-family:'Bauhaus 93';-inkscape-font-specification:'Bauhaus 93, ';letter-spacing:0px;word-spacing:0px;fill:url(#linearGradient4575);fill-opacity:1;fill-rule:evenodd;stroke:none;stroke-width:3.45652699;stroke-miterlimit:4;stroke-dasharray:none;stroke-opacity:1" />
      <path
         sodipodi:type="inkscape:offset"
         inkscape:radius="-3.9339499"
         inkscape:original="M 452.08594 729.60742 C 443.30256 729.72542 434.50144 730.10068 425.76172 729.74414 C 408.36664 729.76414 390.97092 729.70434 373.57617 729.77344 C 369.7377 729.87224 365.8858 730.20275 362.14258 731.08984 C 362.44738 766.79163 361.80704 802.52834 362.74023 838.20898 C 363.53878 841.2272 362.24266 846.9284 367.04688 846.08789 C 386.9149 847.21498 406.86637 846.25306 426.76562 846.57227 C 431.30041 856.936 435.83742 867.29875 440.37305 877.66211 L 463.74805 877.66211 C 458.68084 867.2989 453.61494 856.93505 448.54688 846.57227 C 461.10177 845.65787 475.75938 849.19794 486.81836 841.50586 C 495.32669 831.89853 491.92485 817.63731 492.72852 805.9668 C 492.23041 785.92145 493.76372 765.75155 491.89062 745.78516 C 491.21978 738.40913 485.82466 731.9469 478.30078 731.01758 C 469.63494 729.62866 460.86931 729.48942 452.08594 729.60742 z M 372.02148 747.35352 L 373.02148 747.35352 L 374.02148 747.35352 L 468.72461 747.35352 L 468.72461 827.82031 L 439.62891 827.82031 C 434.26605 816.53979 428.90651 805.25769 423.54492 793.97656 C 417.97591 796.22852 412.4069 798.48047 406.83789 800.73242 C 410.702 809.76164 414.56455 818.79153 418.42969 827.82031 L 372.02148 827.82031 L 372.02148 747.35352 z "
         style="font-style:normal;font-variant:normal;font-weight:normal;font-stretch:normal;font-size:80.00428009px;line-height:1.25;font-family:'BankGothic Md BT';-inkscape-font-specification:'BankGothic Md BT';letter-spacing:0px;word-spacing:0px;fill:#ffffff;fill-opacity:1;stroke:none;stroke-width:3.61734247;stroke-miterlimit:4;stroke-dasharray:none;stroke-opacity:1"
         id="path4529"
         d="m 452.13867,733.54102 c -8.65321,0.11625 -17.4696,0.49089 -26.37305,0.13671 -17.37843,0.02 -34.74113,-0.0392 -52.08789,0.0293 -2.60717,0.0671 -5.1313,0.32043 -7.59765,0.70313 0.2408,34.62252 -0.30637,69.19051 0.5918,103.61718 0.3694,1.83585 0.4402,3.26671 0.51757,4.13086 a 3.9343433,3.9343433 0 0 1 0.0801,0.002 c 19.59297,1.11148 39.49045,0.15659 59.55859,0.47851 a 3.9343433,3.9343433 0 0 1 3.54102,2.35742 c 4.19098,9.57799 8.38393,19.15415 12.57617,28.73243 h 14.50196 c -4.14419,-8.47624 -8.28868,-16.95253 -12.4336,-25.42774 a 3.9343433,3.9343433 0 0 1 3.24805,-5.65234 c 13.31345,-0.96965 26.64058,1.93542 35.88476,-4.14063 3.19297,-3.82409 4.30421,-8.56307 4.5879,-14.19531 0.2929,-5.81537 -0.36521,-12.29088 0.0703,-18.61523 l -0.01,0.36718 c -0.50472,-20.31129 1.01113,-40.38979 -0.82031,-59.91211 a 3.9343433,3.9343433 0 0 1 -0.002,-0.0117 c -0.51729,-5.68769 -4.60534,-10.53336 -10.1543,-11.21874 a 3.9343433,3.9343433 0 0 1 -0.14063,-0.0195 c -8.29709,-1.32982 -16.83241,-1.47829 -25.53906,-1.36132 z m -80.11719,9.8789 h 1 1 94.70313 a 3.9343433,3.9343433 0 0 1 3.93359,3.9336 v 80.46679 a 3.9343433,3.9343433 0 0 1 -3.93359,3.9336 h -29.0957 a 3.9343433,3.9343433 0 0 1 -3.55274,-2.24414 c -4.83276,-10.16548 -9.66328,-20.33084 -14.49414,-30.4961 -3.18295,1.2871 -6.36588,2.57424 -9.54883,3.86133 3.33761,7.79978 6.67523,15.59804 10.01368,23.39648 a 3.9343433,3.9343433 0 0 1 -3.61719,5.48243 h -46.40821 a 3.9343433,3.9343433 0 0 1 -3.93359,-3.9336 v -80.46679 a 3.9343433,3.9343433 0 0 1 3.93359,-3.9336 z"
         transform="matrix(1.1002396,0,0,1.099849,-44.194937,-77.033443)" />
      <path
         inkscape:connector-curvature="0"
         id="path4563"
         d="m 552.853,882.09545 a 140.64756,140.63786 0 0 0 -27.1543,30.6582 v 44.9336 h 45.1621 c 13.3301,0 24.0625,-10.7305 24.0625,-24.0606 v -51.5312 z"
         style="font-style:normal;font-variant:normal;font-weight:normal;font-stretch:normal;line-height:0%;font-family:'Bauhaus 93';-inkscape-font-specification:'Bauhaus 93, ';letter-spacing:0px;word-spacing:0px;fill:#025082;fill-opacity:1;fill-rule:evenodd;stroke:none;stroke-width:3.45652699;stroke-miterlimit:4;stroke-dasharray:none;stroke-opacity:1" />
      <path
         inkscape:connector-curvature="0"
         id="path4565"
         d="m 527.4722,727.68725 v 131.8808 a 140.63786,140.64756 0 0 0 30.6582,27.1543 h 36.7929 v -134.9726 c 0,-13.3301 -10.7324,-24.0625 -24.0625,-24.0625 z"
         style="font-style:normal;font-variant:normal;font-weight:normal;font-stretch:normal;line-height:0%;font-family:'Bauhaus 93';-inkscape-font-specification:'Bauhaus 93, ';letter-spacing:0px;word-spacing:0px;fill:url(#linearGradient4573);fill-opacity:1.0;fill-rule:evenodd;stroke:none;stroke-width:3.45652699;stroke-miterlimit:4;stroke-dasharray:none;stroke-opacity:1" />
      <path
         style="font-style:normal;font-variant:normal;font-weight:normal;font-stretch:normal;line-height:0%;font-family:'Bauhaus 93';-inkscape-font-specification:'Bauhaus 93, ';letter-spacing:0px;word-spacing:0px;fill:url(#linearGradient4591);fill-opacity:1;fill-rule:evenodd;stroke:none;stroke-width:3.45652699;stroke-miterlimit:4;stroke-dasharray:none;stroke-opacity:1"
         d="m 358.96245,884.82205 c 0.02,16.1028 0.044,32.2057 0.1,48.3046 0,13.3301 10.7324,24.0606 24.0625,24.0606 h 143.5547 v -45.211 a 140.63786,140.64756 0 0 0 -30.6582,-27.1542 z"
         id="path4583"
         inkscape:connector-curvature="0" />
      <path
         style="font-style:normal;font-variant:normal;font-weight:normal;font-stretch:normal;line-height:0%;font-family:'Bauhaus 93';-inkscape-font-specification:'Bauhaus 93, ';letter-spacing:0px;word-spacing:0px;fill:url(#linearGradient4601);fill-opacity:1;fill-rule:evenodd;stroke:none;stroke-width:3.45652699;stroke-miterlimit:4;stroke-dasharray:none;stroke-opacity:1"
         d="m 552.853,882.09545 a 140.64756,140.63786 0 0 0 -27.1543,30.6582 v 44.9336 h 45.1621 c 13.3301,0 24.0625,-10.7305 24.0625,-24.0606 v -51.5312 z"
         id="path4593"
         inkscape:connector-curvature="0" />
      <path
         inkscape:connector-curvature="0"
         id="path5226"
         d="m 523.9604,727.18725 v 124.332 a 140.64756,140.63786 0 0 1 -27.1543,30.6582 H 358.6069 c 0,1.6324 0.01,3.2641 0.01,4.8965 h 138.4004 a 140.64756,140.63786 0 0 1 26.9434,30.5293 v 39.584 h 4.5996 v -39.457 a 140.64756,140.63786 0 0 1 27.1562,-30.6563 h 38.7071 v -4.8965 h -38.918 a 140.64756,140.63786 0 0 1 -26.9453,-30.5293 v -124.4609 z"
         style="font-style:normal;font-variant:normal;font-weight:normal;font-stretch:normal;line-height:0%;font-family:'Bauhaus 93';-inkscape-font-specification:'Bauhaus 93, ';letter-spacing:0px;word-spacing:0px;fill:#ffffff;fill-opacity:1;fill-rule:evenodd;stroke:none;stroke-width:3.97923708;stroke-miterlimit:4;stroke-dasharray:none;stroke-opacity:1" />
      <path
         inkscape:connector-curvature="0"
         id="text4549"
         d="m 383.8266,893.5974 v 55.78869 h 57.63314 v -10.50492 h -44.65041 v -13.82713 h 25.75429 v -9.49946 h -25.75429 v -12.45501 h 44.12269 v -9.50217 z m 81.69862,0 v 55.78869 h 54.83607 V 938.88117 H 478.51052 V 893.5974 Z m 92.88959,0 -31.55959,55.78869 h 12.93004 l 6.49123,-12.19372 h 35.36211 l 6.70239,12.19372 7.69102,-10.25 -25.1095,-45.53869 z m 5.80531,10.8216 12.03537,22.69336 h -24.43756 z"
         style="font-style:normal;font-variant:normal;font-weight:normal;font-stretch:normal;font-size:80.00428009px;line-height:1.25;font-family:'BankGothic Md BT';-inkscape-font-specification:'BankGothic Md BT';letter-spacing:0px;word-spacing:0px;fill:#ffffff;fill-opacity:1;stroke:none;stroke-width:3.97923684;stroke-miterlimit:4;stroke-dasharray:none;stroke-opacity:1"
         sodipodi:nodetypes="ccccccccccccccccccccccccccccccccc" />
      <path
         style="opacity:1;fill:none;fill-opacity:1;stroke:#545454;stroke-width:7;stroke-miterlimit:4;stroke-dasharray:none;stroke-dashoffset:0;stroke-opacity:1"
         d="m 358.4233,727.18725 0.2873,63.2109 v 0 142.7285 c 0,13.3301 10.7324,24.0606 24.0625,24.0606 h 187.5898 c 13.3301,0 24.0625,-10.7305 24.0625,-24.0606 v -181.8769 c 0,-13.3301 -10.7324,-24.0625 -24.0625,-24.0625 H 411.2828 Z"
         id="path4574"
         inkscape:connector-curvature="0"
         sodipodi:nodetypes="cccsssssscc" />
      <path
         style="fill:#ffffff;fill-opacity:1;stroke:none;stroke-width:1px;stroke-linecap:butt;stroke-linejoin:miter;stroke-opacity:1"
         d="M 0 6.9257812 L -0.087890625 8.4335938 L -0.087890625 22.8125 C 0.42070351 21.877422 1.0952883 21.072088 2.0175781 20.556641 C 6.3404381 18.140691 12.785156 16.224609 12.785156 16.224609 L 9.4394531 7.0078125 L 0 6.9257812 z "
         transform="translate(354.90736,723.68725)"
         id="path4538" />
    </g>
  </g>
</svg>
